<?xml version="1.0" encoding="UTF-8" standalone="no"?>
<!-- Created with Inkscape (http://www.inkscape.org/) -->

<svg
   xmlns:dc="http://purl.org/dc/elements/1.1/"
   xmlns:cc="http://creativecommons.org/ns#"
   xmlns:rdf="http://www.w3.org/1999/02/22-rdf-syntax-ns#"
   xmlns:svg="http://www.w3.org/2000/svg"
   xmlns="http://www.w3.org/2000/svg"
   xmlns:sodipodi="http://sodipodi.sourceforge.net/DTD/sodipodi-0.dtd"
   xmlns:inkscape="http://www.inkscape.org/namespaces/inkscape"
   width="744.09448819"
   height="1052.3622047"
   id="svg2"
   version="1.1"
   inkscape:version="0.48.4 r9939"
   sodipodi:docname="icones.svg">
  <defs
     id="defs4" />
  <sodipodi:namedview
     id="base"
     pagecolor="#ffffff"
     bordercolor="#666666"
     borderopacity="1.0"
     inkscape:pageopacity="0.0"
     inkscape:pageshadow="2"
     inkscape:zoom="2.8"
     inkscape:cx="208.57078"
     inkscape:cy="394.8818"
     inkscape:document-units="px"
     inkscape:current-layer="layer1"
     showgrid="false"
     inkscape:window-width="1366"
     inkscape:window-height="716"
     inkscape:window-x="0"
     inkscape:window-y="27"
     inkscape:window-maximized="1" />
  <metadata
     id="metadata7">
    <rdf:RDF>
      <cc:Work
         rdf:about="">
        <dc:format>image/svg+xml</dc:format>
        <dc:type
           rdf:resource="http://purl.org/dc/dcmitype/StillImage" />
        <dc:title></dc:title>
      </cc:Work>
    </rdf:RDF>
  </metadata>
  <g
     inkscape:label="Layer 1"
     inkscape:groupmode="layer"
     id="layer1">
    <g
       id="g3005"
       transform="translate(-67.472064,-209.51278)">
      <g
         transform="translate(0,0.50505181)"
         style="fill:#000000"
         id="g2991">
        <rect
           style="fill:#000000;fill-opacity:1;stroke:none"
           id="rect2985"
           width="24"
           height="80"
           x="156.57364"
           y="410.71738"
           ry="12" />
        <rect
           ry="12"
           y="-208.57364"
           x="438.71738"
           height="80"
           width="24"
           id="rect2987"
           style="fill:#000000;fill-opacity:1;stroke:none"
           transform="matrix(0,1,-1,0,0,0)" />
      </g>
      <path
         transform="matrix(1.0999439,0,0,1.0999439,-24.736561,-202.98357)"
         d="m 289.91378,594.76306 c 0,20.08411 -16.28138,36.36549 -36.36549,36.36549 -20.0841,0 -36.36549,-16.28138 -36.36549,-36.36549 0,-20.0841 16.28139,-36.36549 36.36549,-36.36549 20.08411,0 36.36549,16.28139 36.36549,36.36549 z"
         sodipodi:ry="36.36549"
         sodipodi:rx="36.36549"
         sodipodi:cy="594.76306"
         sodipodi:cx="253.54829"
         id="path2997"
         style="fill:#44aa00;fill-opacity:1;stroke:none"
         sodipodi:type="arc" />
    </g>
    <g
       id="g3001"
       transform="translate(-59.401056,-208.09143)">
      <rect
         ry="12"
         y="-408.57364"
         x="439.22244"
         height="80"
         width="24"
         id="rect2989"
         style="fill:#000000;fill-opacity:1;stroke:none"
         transform="matrix(0,1,-1,0,0,0)" />
      <path
         sodipodi:type="arc"
         style="fill:#44aa00;fill-opacity:1;stroke:none"
         id="path2999"
         sodipodi:cx="253.54829"
         sodipodi:cy="594.76306"
         sodipodi:rx="36.36549"
         sodipodi:ry="36.36549"
         d="m 289.91378,594.76306 c 0,20.08411 -16.28138,36.36549 -36.36549,36.36549 -20.0841,0 -36.36549,-16.28138 -36.36549,-36.36549 0,-20.0841 16.28139,-36.36549 36.36549,-36.36549 20.08411,0 36.36549,16.28139 36.36549,36.36549 z"
         transform="matrix(1.0999439,0,0,1.0999439,175.26344,-202.98357)" />
    </g>
    <g
       id="g3835"
       transform="translate(-70.812197,-244.45691)">
      <g
         transform="translate(-20,-6.3731138)"
         id="g3807">
        <path
           transform="matrix(0,-0.30178843,0.30178843,0,65.629255,711.46128)"
           d="m 289.91378,594.76306 c 0,20.08411 -16.28138,36.36549 -36.36549,36.36549 -20.0841,0 -36.36549,-16.28138 -36.36549,-36.36549 0,-20.0841 16.28139,-36.36549 36.36549,-36.36549 20.08411,0 36.36549,16.28139 36.36549,36.36549 z"
           sodipodi:ry="36.36549"
           sodipodi:rx="36.36549"
           sodipodi:cy="594.76306"
           sodipodi:cx="253.54829"
           id="path3791"
           style="fill:#44aa00;fill-opacity:1;stroke:none"
           sodipodi:type="arc" />
        <path
           sodipodi:type="arc"
           style="fill:#44aa00;fill-opacity:1;stroke:none"
           id="path3785"
           sodipodi:cx="253.54829"
           sodipodi:cy="594.76306"
           sodipodi:rx="36.36549"
           sodipodi:ry="36.36549"
           d="m 289.91378,594.76306 c 0,20.08411 -16.28138,36.36549 -36.36549,36.36549 -20.0841,0 -36.36549,-16.28138 -36.36549,-36.36549 0,-20.0841 16.28139,-36.36549 36.36549,-36.36549 20.08411,0 36.36549,16.28139 36.36549,36.36549 z"
           transform="matrix(0,-0.30178843,0.30178843,0,65.629255,769.51192)" />
        <path
           style="fill:none;stroke:#000000;stroke-width:3.72119427;stroke-linecap:round;stroke-linejoin:round;stroke-miterlimit:4;stroke-opacity:1;stroke-dasharray:3.72119434, 7.44238869;stroke-dashoffset:0"
           d="m 245.19554,693.58325 0,-58.63999"
           id="path3789"
           inkscape:connector-curvature="0" />
      </g>
      <g
         id="g3795"
         style="fill:#000000"
         transform="translate(0,206.87817)">
        <rect
           ry="12"
           y="410.71738"
           x="156.57364"
           height="80"
           width="24"
           id="rect3797"
           style="fill:#000000;fill-opacity:1;stroke:none" />
        <rect
           transform="matrix(0,1,-1,0,0,0)"
           style="fill:#000000;fill-opacity:1;stroke:none"
           id="rect3799"
           width="24"
           height="80"
           x="438.71738"
           y="-208.57364"
           ry="12" />
      </g>
    </g>
    <g
       id="g3828"
       transform="translate(-52.791897,-244.49752)">
      <g
         id="g3812"
         transform="translate(200,-6.3731138)">
        <path
           sodipodi:type="arc"
           style="fill:#44aa00;fill-opacity:1;stroke:none"
           id="path3814"
           sodipodi:cx="253.54829"
           sodipodi:cy="594.76306"
           sodipodi:rx="36.36549"
           sodipodi:ry="36.36549"
           d="m 289.91378,594.76306 c 0,20.08411 -16.28138,36.36549 -36.36549,36.36549 -20.0841,0 -36.36549,-16.28138 -36.36549,-36.36549 0,-20.0841 16.28139,-36.36549 36.36549,-36.36549 20.08411,0 36.36549,16.28139 36.36549,36.36549 z"
           transform="matrix(0,-0.30178843,0.30178843,0,65.629255,711.46128)" />
        <path
           transform="matrix(0,-0.30178843,0.30178843,0,65.629255,769.51192)"
           d="m 289.91378,594.76306 c 0,20.08411 -16.28138,36.36549 -36.36549,36.36549 -20.0841,0 -36.36549,-16.28138 -36.36549,-36.36549 0,-20.0841 16.28139,-36.36549 36.36549,-36.36549 20.08411,0 36.36549,16.28139 36.36549,36.36549 z"
           sodipodi:ry="36.36549"
           sodipodi:rx="36.36549"
           sodipodi:cy="594.76306"
           sodipodi:cx="253.54829"
           id="path3816"
           style="fill:#44aa00;fill-opacity:1;stroke:none"
           sodipodi:type="arc" />
        <path
           inkscape:connector-curvature="0"
           id="path3818"
           d="m 245.19554,693.58325 0,-58.63999"
           style="fill:none;stroke:#000000;stroke-width:3.72119427;stroke-linecap:round;stroke-linejoin:round;stroke-miterlimit:4;stroke-opacity:1;stroke-dasharray:3.72119434, 7.44238869;stroke-dashoffset:0" />
      </g>
      <rect
         transform="matrix(0,1,-1,0,0,0)"
         style="fill:#000000;fill-opacity:1;stroke:none"
         id="rect3824"
         width="24"
         height="80"
         x="645.59552"
         y="-428.57364"
         ry="12" />
    </g>
    <g
       id="g3868"
       transform="matrix(0.98550114,0,0,0.98550114,-66.971433,-224.98842)">
      <rect
         inkscape:transform-center-x="-9.9246047"
         transform="matrix(0.96592583,-0.25881905,0.25881905,0.96592583,0,0)"
         inkscape:transform-center-y="37.039127"
         style="fill:#000000;fill-opacity:1;stroke:none"
         id="rect3848"
         width="24"
         height="80"
         x="36.172638"
         y="312.80139"
         ry="12" />
      <rect
         inkscape:transform-center-y="9.9246189"
         ry="12"
         y="191.29228"
         x="-266.2403"
         height="80"
         width="24"
         id="rect3862"
         style="fill:#000000;fill-opacity:1;stroke:none"
         transform="matrix(0.25881905,-0.96592583,0.96592583,0.25881905,0,0)"
         inkscape:transform-center-x="-37.039117" />
      <rect
         inkscape:transform-center-x="-27.114531"
         transform="matrix(0.70710677,-0.70710679,0.70710679,0.70710677,0,0)"
         inkscape:transform-center-y="27.114509"
         style="fill:#000000;fill-opacity:1;stroke:none"
         id="rect3864"
         width="24"
         height="80"
         x="-131.24115"
         y="292.29453"
         ry="12" />
      <rect
         transform="matrix(0.70710678,-0.70710678,0.70710678,0.70710678,0,0)"
         ry="14.142858"
         y="292.20798"
         x="-131.45003"
         height="94.285713"
         width="24"
         id="rect3866"
         style="fill:#000000;fill-opacity:1;stroke:none"
         inkscape:transform-center-y="31.956365"
         inkscape:transform-center-x="-31.956391" />
    </g>
    <g
       transform="matrix(0.2,0,0,0.2,106.11783,578.10235)"
       id="g3893">
      <g
         id="g3895"
         style="fill:#000000"
         transform="translate(0,0.50505181)">
        <rect
           ry="12"
           y="410.71738"
           x="156.57364"
           height="80"
           width="24"
           id="rect3897"
           style="fill:#000000;fill-opacity:1;stroke:none" />
        <rect
           transform="matrix(0,1,-1,0,0,0)"
           style="fill:#000000;fill-opacity:1;stroke:none"
           id="rect3899"
           width="24"
           height="80"
           x="438.71738"
           y="-208.57364"
           ry="12" />
      </g>
      <path
         sodipodi:type="arc"
         style="fill:#44aa00;fill-opacity:1;stroke:none"
         id="path3901"
         sodipodi:cx="253.54829"
         sodipodi:cy="594.76306"
         sodipodi:rx="36.36549"
         sodipodi:ry="36.36549"
         d="m 289.91378,594.76306 c 0,20.08411 -16.28138,36.36549 -36.36549,36.36549 -20.0841,0 -36.36549,-16.28138 -36.36549,-36.36549 0,-20.0841 16.28139,-36.36549 36.36549,-36.36549 20.08411,0 36.36549,16.28139 36.36549,36.36549 z"
         transform="matrix(1.0999439,0,0,1.0999439,-24.736561,-202.98357)" />
    </g>
    <g
       transform="matrix(0.20000001,0,0,0.20000001,108.44259,578.10235)"
       id="g3903">
      <rect
         transform="matrix(0,1,-1,0,0,0)"
         style="fill:#000000;fill-opacity:1;stroke:none"
         id="rect3905"
         width="24"
         height="80"
         x="439.22244"
         y="-408.57364"
         ry="12" />
      <path
         transform="matrix(1.0999439,0,0,1.0999439,175.26344,-202.98357)"
         d="m 289.91378,594.76306 c 0,20.08411 -16.28138,36.36549 -36.36549,36.36549 -20.0841,0 -36.36549,-16.28138 -36.36549,-36.36549 0,-20.0841 16.28139,-36.36549 36.36549,-36.36549 20.08411,0 36.36549,16.28139 36.36549,36.36549 z"
         sodipodi:ry="36.36549"
         sodipodi:rx="36.36549"
         sodipodi:cy="594.76306"
         sodipodi:cx="253.54829"
         id="path3907"
         style="fill:#44aa00;fill-opacity:1;stroke:none"
         sodipodi:type="arc" />
    </g>
    <g
       transform="matrix(0.19999998,0,0,0.19999998,195.5696,536.82774)"
       id="g3909">
      <g
         id="g3911"
         transform="translate(-20,-6.3731138)">
        <path
           sodipodi:type="arc"
           style="fill:#44aa00;fill-opacity:1;stroke:none"
           id="path3913"
           sodipodi:cx="253.54829"
           sodipodi:cy="594.76306"
           sodipodi:rx="36.36549"
           sodipodi:ry="36.36549"
           d="m 289.91378,594.76306 c 0,20.08411 -16.28138,36.36549 -36.36549,36.36549 -20.0841,0 -36.36549,-16.28138 -36.36549,-36.36549 0,-20.0841 16.28139,-36.36549 36.36549,-36.36549 20.08411,0 36.36549,16.28139 36.36549,36.36549 z"
           transform="matrix(0,-0.30178843,0.30178843,0,65.629255,711.46128)" />
        <path
           transform="matrix(0,-0.30178843,0.30178843,0,65.629255,769.51192)"
           d="m 289.91378,594.76306 c 0,20.08411 -16.28138,36.36549 -36.36549,36.36549 -20.0841,0 -36.36549,-16.28138 -36.36549,-36.36549 0,-20.0841 16.28139,-36.36549 36.36549,-36.36549 20.08411,0 36.36549,16.28139 36.36549,36.36549 z"
           sodipodi:ry="36.36549"
           sodipodi:rx="36.36549"
           sodipodi:cy="594.76306"
           sodipodi:cx="253.54829"
           id="path3915"
           style="fill:#44aa00;fill-opacity:1;stroke:none"
           sodipodi:type="arc" />
        <path
           inkscape:connector-curvature="0"
           id="path3917"
           d="m 245.19554,693.58325 0,-58.63999"
           style="fill:none;stroke:#000000;stroke-width:3.72119427;stroke-linecap:round;stroke-linejoin:round;stroke-miterlimit:4;stroke-opacity:1;stroke-dasharray:3.72119434, 7.44238869;stroke-dashoffset:0" />
      </g>
      <g
         transform="translate(0,206.87817)"
         style="fill:#000000"
         id="g3919">
        <rect
           style="fill:#000000;fill-opacity:1;stroke:none"
           id="rect3921"
           width="24"
           height="80"
           x="156.57364"
           y="410.71738"
           ry="12" />
        <rect
           ry="12"
           y="-208.57364"
           x="438.71738"
           height="80"
           width="24"
           id="rect3923"
           style="fill:#000000;fill-opacity:1;stroke:none"
           transform="matrix(0,1,-1,0,0,0)" />
      </g>
    </g>
    <g
       transform="matrix(0.19999998,0,0,0.19999998,178.20915,536.82774)"
       id="g3925">
      <g
         transform="translate(200,-6.3731138)"
         id="g3927">
        <path
           transform="matrix(0,-0.30178843,0.30178843,0,65.629255,711.46128)"
           d="m 289.91378,594.76306 c 0,20.08411 -16.28138,36.36549 -36.36549,36.36549 -20.0841,0 -36.36549,-16.28138 -36.36549,-36.36549 0,-20.0841 16.28139,-36.36549 36.36549,-36.36549 20.08411,0 36.36549,16.28139 36.36549,36.36549 z"
           sodipodi:ry="36.36549"
           sodipodi:rx="36.36549"
           sodipodi:cy="594.76306"
           sodipodi:cx="253.54829"
           id="path3929"
           style="fill:#44aa00;fill-opacity:1;stroke:none"
           sodipodi:type="arc" />
        <path
           sodipodi:type="arc"
           style="fill:#44aa00;fill-opacity:1;stroke:none"
           id="path3931"
           sodipodi:cx="253.54829"
           sodipodi:cy="594.76306"
           sodipodi:rx="36.36549"
           sodipodi:ry="36.36549"
           d="m 289.91378,594.76306 c 0,20.08411 -16.28138,36.36549 -36.36549,36.36549 -20.0841,0 -36.36549,-16.28138 -36.36549,-36.36549 0,-20.0841 16.28139,-36.36549 36.36549,-36.36549 20.08411,0 36.36549,16.28139 36.36549,36.36549 z"
           transform="matrix(0,-0.30178843,0.30178843,0,65.629255,769.51192)" />
        <path
           style="fill:none;stroke:#000000;stroke-width:3.72119427;stroke-linecap:round;stroke-linejoin:round;stroke-miterlimit:4;stroke-opacity:1;stroke-dasharray:3.72119434, 7.44238869;stroke-dashoffset:0"
           d="m 245.19554,693.58325 0,-58.63999"
           id="path3933"
           inkscape:connector-curvature="0" />
      </g>
      <rect
         ry="12"
         y="-428.57364"
         x="645.59552"
         height="80"
         width="24"
         id="rect3935"
         style="fill:#000000;fill-opacity:1;stroke:none"
         transform="matrix(0,1,-1,0,0,0)" />
    </g>
    <g
       transform="matrix(0.19710023,0,0,0.19710023,81.047179,603.9393)"
       id="g3937">
      <rect
         ry="12"
         y="312.80139"
         x="36.172638"
         height="80"
         width="24"
         id="rect3939"
         style="fill:#000000;fill-opacity:1;stroke:none"
         inkscape:transform-center-y="37.039127"
         transform="matrix(0.96592583,-0.25881905,0.25881905,0.96592583,0,0)"
         inkscape:transform-center-x="-9.9246047" />
      <rect
         inkscape:transform-center-x="-37.039117"
         transform="matrix(0.25881905,-0.96592583,0.96592583,0.25881905,0,0)"
         style="fill:#000000;fill-opacity:1;stroke:none"
         id="rect3941"
         width="24"
         height="80"
         x="-266.2403"
         y="191.29228"
         ry="12"
         inkscape:transform-center-y="9.9246189" />
      <rect
         ry="12"
         y="292.29453"
         x="-131.24115"
         height="80"
         width="24"
         id="rect3943"
         style="fill:#000000;fill-opacity:1;stroke:none"
         inkscape:transform-center-y="27.114509"
         transform="matrix(0.70710677,-0.70710679,0.70710679,0.70710677,0,0)"
         inkscape:transform-center-x="-27.114531" />
      <rect
         inkscape:transform-center-x="-31.956391"
         inkscape:transform-center-y="31.956365"
         style="fill:#000000;fill-opacity:1;stroke:none"
         id="rect3945"
         width="24"
         height="94.285713"
         x="-131.45003"
         y="292.20798"
         ry="14.142858"
         transform="matrix(0.70710678,-0.70710678,0.70710678,0.70710678,0,0)" />
    </g>
  </g>
</svg>
